<svg width="115" height="16" viewBox="0 0 115 16" fill="none" xmlns="http://www.w3.org/2000/svg">
<path fill-rule="evenodd" clip-rule="evenodd" d="M0.681396 13.7775L2.3479 12.6667L4.01519 13.7775L0.681396 16V13.7775ZM16.6827 2.22247L15.0159 3.33353L13.3492 2.22247L16.6827 0V2.22247ZM16.6827 10.6668L8.68224 16L0.681396 10.6668L10.1823 4.33332L11.8491 5.44475L4.18187 10.5556L8.84865 13.6665L11.0157 12.2221L9.34887 11.1112L13.3492 8.44432L16.6827 10.6668ZM0.681396 5.3334L8.68224 0L16.6827 5.3334L7.18185 11.6666L5.51502 10.5556L13.1822 5.44446L8.51556 2.33353L6.34843 3.77794L8.01523 4.88879L4.01519 7.55559L0.681396 5.3334Z" fill="#A3A3A3"/>
<path fill-rule="evenodd" clip-rule="evenodd" d="M22.5682 7.03285V4.30687H23.532C24.4069 4.30687 25.0247 4.88294 25.0247 5.66563C25.0247 6.69929 24.2359 7.02418 23.6695 7.02418H22.7663L22.5682 7.03285ZM23.1041 8.66366H23.4467C24.7504 8.66366 25.1623 9.23925 25.1623 10.1845C25.1623 11.6761 23.9268 11.6909 23.378 11.6909H22.5682V8.68002L23.1041 8.66366ZM38.3039 13.3293V7.50892L40.7331 13.3293H43.3506V4.60231H41.465V10.2447L39.1026 4.60231H36.4208V13.3293H38.3039ZM47.5648 13.5859C49.4923 13.5859 50.6189 12.8215 50.6189 10.442H48.426C48.3981 11.1447 48.3865 12.2544 47.5648 12.2544C46.6315 12.2544 46.496 11.6911 46.496 8.98721C46.496 6.1905 46.7092 5.71961 47.5222 5.71961C48.1076 5.71961 48.3705 6.16346 48.3705 7.34715H50.5502C50.632 5.4362 49.57 4.38809 47.469 4.38809C44.3392 4.38809 44.2478 6.37681 44.2478 8.98721C44.2478 11.6115 44.1679 13.5859 47.5648 13.5859ZM30.141 13.3293L30.6897 11.3954H33.0436L33.5786 13.3293H35.9055L33.2845 4.60231H30.6228L27.9478 13.3293H30.141ZM32.6958 10.0538H31.0102L31.813 6.48295L32.6958 10.0538ZM54.6667 12.2544C53.6726 12.2544 53.5441 11.268 53.5441 8.98721C53.5441 6.70631 53.6726 5.71961 54.6667 5.71961C55.6607 5.71961 55.7895 6.70631 55.7895 8.98721C55.7895 11.268 55.6607 12.2544 54.6667 12.2544ZM54.6667 13.5859C58.0638 13.5859 58.0638 11.3174 58.0638 8.98721C58.0638 6.63212 58.0638 4.38809 54.6667 4.38809C51.2701 4.38809 51.2701 6.63212 51.2701 8.98721C51.2701 11.3174 51.2701 13.5859 54.6667 13.5859ZM108.771 13.3293V4.60231H106.551V13.3293H108.771ZM114.886 13.3293V12.0095H112.294V4.60231H110.074V13.3293H114.886ZM81.324 13.3293C82.3699 13.3293 84.9682 13.2111 84.9682 10.5085C84.9682 9.04659 84.5104 8.02745 82.7618 7.8062C84.1021 7.5403 84.7718 6.65397 84.7718 5.4286C84.7718 3.15425 83.2196 2.66681 81.3403 2.66681H76.9611V13.3293H81.324ZM79.6509 7.04709V4.3213H80.951C81.6636 4.3213 82.1666 4.89718 82.1666 5.67977C82.1666 6.71373 81.5236 7.03833 81.0628 7.03833H80.3269L79.6509 7.04797V7.04709ZM80.3277 8.6778H80.8812C81.9429 8.6778 82.2781 9.2534 82.2781 10.1989C82.2781 11.6903 81.2721 11.705 80.8253 11.705H79.6509V8.69417L80.3277 8.6778ZM62.6885 5.93374H63.5901C64.8037 5.93374 64.8037 7.35255 64.8037 8.96508C64.8037 11.1599 64.5958 11.9963 63.5325 11.9963H62.6885V5.93374ZM60.4769 13.3274H63.7933C67.272 13.3274 67.0425 10.2475 67.0425 8.90175C67.0425 6.17356 66.5436 4.57277 63.8743 4.57277H60.4769V13.3274ZM71.2665 12.2583C70.2719 12.2583 70.1431 11.2759 70.1431 9.00492C70.1431 6.73365 70.2719 5.75127 71.2665 5.75127C72.2614 5.75127 72.3902 6.73365 72.3902 9.00492C72.3902 11.2759 72.2614 12.2583 71.2665 12.2583ZM71.2665 13.584C74.6653 13.584 74.6653 11.325 74.6653 9.00492C74.6653 6.65994 74.6653 4.42553 71.2665 4.42553C67.8678 4.42553 67.8678 6.65994 67.8678 9.00492C67.8678 11.325 67.8678 13.584 71.2665 13.584ZM96.6155 10.0565H94.9304L95.7327 6.48537L96.6155 10.0565ZM102.786 13.3274C104.247 13.3274 105.727 13.1329 105.727 10.8728C105.727 8.26294 101.944 8.52344 101.944 6.86723C101.944 6.26306 102.312 5.93682 102.935 5.93682H104.959V4.59355H102.115C99.7771 4.59355 99.1994 5.64811 99.1994 7.01427C99.1994 9.61293 103.391 9.55183 103.391 11.0135C103.391 11.6057 103.073 12.0046 102.425 12.0046H99.4263L97.2038 4.59952H94.5422L92.0826 12.5423L90.5389 9.12819C91.6708 8.91676 92.1205 8.19961 92.1244 6.88387C92.1244 5.39694 91.2419 4.59952 89.8643 4.59952H85.7023V13.3265H87.9782V5.94086H88.733C89.3749 5.94086 89.9325 6.40924 89.9325 7.26718C89.9325 7.99473 89.5681 8.59158 88.9826 8.55395L88.3494 8.56359L90.421 13.3269H94.0607L94.6093 11.3928H96.9632L97.4982 13.3269L102.786 13.328V13.3274ZM24.2451 13.3285C25.2905 13.3285 27.8888 13.2104 27.8888 10.5078C27.8888 9.04587 27.4314 8.02702 25.6828 7.8052C27.023 7.53949 27.6927 6.65345 27.6927 5.42749C27.6927 3.15354 26.1402 2.66601 24.2612 2.66601H19.8821V13.3285H24.2451Z" fill="#A3A3A3"/>
</svg>
