<svg width="55" height="16" viewBox="0 0 55 16" fill="none" xmlns="http://www.w3.org/2000/svg">
<path d="M10.338 6.82875C10.0343 6.56889 7.54132 5.8645 5.46895 5.37565C5.45303 6.9756 5.55109 8.71444 5.76266 9.01711C6.06582 9.27696 8.56033 9.98136 10.6327 10.4707C10.6486 8.87125 10.5511 7.13191 10.338 6.82875Z" fill="#A3A3A3"/>
<path d="M8.05908 0C3.64104 0 0.0593262 3.58222 0.0593262 8.00025C0.0593262 12.4183 3.64104 16 8.05908 16C12.4781 16 16.0593 12.4183 16.0593 8.00025C16.0593 3.58222 12.4781 0 8.05908 0ZM13.4518 10.9627C13.2462 11.0344 12.0361 10.8019 10.6327 10.4714C10.6188 11.8468 10.5202 13.1202 10.338 13.2889C9.82928 13.4667 3.15817 11.7791 2.64892 11.3435C2.25515 10.781 2.25515 5.24887 2.64991 4.88398C2.85551 4.81279 4.06518 5.04527 5.46899 5.37631C5.48293 3.99988 5.581 2.72649 5.76369 2.55823C6.27245 2.38101 12.9421 4.06758 13.4518 4.50266C13.8481 5.06767 13.8471 10.5993 13.4518 10.9627Z" fill="#A3A3A3"/>
<path d="M29.5552 3.46722C27.6067 3.46722 26.0601 4.51809 26.0601 7.25752V8.66283C26.0601 11.4023 27.6067 12.4531 29.5552 12.4531C31.5041 12.4531 33.0503 11.4023 33.0503 8.66283V7.25752C33.0503 4.51809 31.5041 3.46722 29.5552 3.46722ZM31.0192 8.66283C31.0192 10.0796 30.5473 10.6819 29.5552 10.6819C28.564 10.6819 28.1031 10.0796 28.1031 8.66283V7.25752C28.1031 5.84076 28.564 5.23891 29.5552 5.23891C30.5473 5.23891 31.0192 5.84076 31.0192 7.25752V8.66283Z" fill="#A3A3A3"/>
<path d="M25.3519 3.57236H19.4952C19.3653 3.57236 19.2593 3.66645 19.2593 3.79687V5.01251C19.2593 5.14294 19.3653 5.23752 19.4952 5.23752H21.4198V12.1092C21.4198 12.2397 21.5263 12.3457 21.6557 12.3457H23.2029C23.3323 12.3457 23.4389 12.2397 23.4389 12.1092V5.23752H25.3519C25.4819 5.23752 25.5998 5.14294 25.5998 5.01251V3.79687C25.5998 3.66645 25.4819 3.57236 25.3519 3.57236Z" fill="#A3A3A3"/>
<path d="M39.6034 3.57236H33.7467C33.6173 3.57236 33.5103 3.66645 33.5103 3.79687V5.01251C33.5103 5.14294 33.6173 5.23752 33.7467 5.23752H35.6717V12.1092C35.6717 12.2397 35.7778 12.3457 35.9077 12.3457H37.4544C37.5843 12.3457 37.6903 12.2397 37.6903 12.1092V5.23752H39.6034C39.7328 5.23752 39.8513 5.14294 39.8513 5.01251V3.79687C39.8513 3.66645 39.7328 3.57236 39.6034 3.57236Z" fill="#A3A3A3"/>
<path d="M47.7154 3.5713H46.0627C45.9447 3.5713 45.8616 3.66538 45.8387 3.78386L44.3622 10.5973C44.3383 10.7268 44.3029 10.7736 44.1964 10.7736C44.0899 10.7736 44.0555 10.7268 44.0311 10.5973L42.5551 3.78386C42.5317 3.66538 42.4371 3.5713 42.3197 3.5713H40.6779C40.5599 3.5713 40.4653 3.65393 40.4653 3.75997C40.4653 3.78386 40.4768 3.79581 40.4768 3.81921L42.2365 11.1399C42.5083 12.274 43.382 12.4512 44.1964 12.4512C45.0118 12.4512 45.8735 12.274 46.1453 11.1399L47.9046 3.81921C47.9046 3.79581 47.9165 3.77191 47.9165 3.75997C47.9165 3.64199 47.8334 3.5713 47.7154 3.5713Z" fill="#A3A3A3"/>
<path d="M52.8629 7.47008L51.3515 6.65517C50.7144 6.31268 50.561 6.15936 50.561 5.82831C50.561 5.40369 50.8089 5.20307 51.482 5.20307C52.2844 5.20307 53.6549 5.3096 53.9854 5.333H54.0088C54.1622 5.333 54.2095 5.23891 54.2095 5.13238V3.93964C54.2095 3.80971 54.1263 3.75047 54.0322 3.72707C53.5837 3.60909 52.391 3.46722 51.5298 3.46722C49.2379 3.46722 48.5071 4.4708 48.5071 5.77007C48.5071 6.63177 48.8018 7.376 49.8999 8.02514L51.5298 8.99337C52.1426 9.35926 52.3083 9.54793 52.3083 9.89091C52.3083 10.4574 52.0724 10.7173 51.2575 10.7173C50.797 10.7173 49.4982 10.6227 49.0148 10.5759H48.979C48.8605 10.5759 48.7664 10.6346 48.7664 10.7999V11.9573C48.7664 12.0867 48.8844 12.1579 49.0024 12.1933C49.6047 12.3466 50.3017 12.4531 51.2346 12.4531C53.631 12.4531 54.4574 11.119 54.4574 9.86702C54.4574 8.91073 54.0915 8.13117 52.8629 7.47008Z" fill="#A3A3A3"/>
</svg>
