<svg width="121" height="16" viewBox="0 0 121 16" fill="none" xmlns="http://www.w3.org/2000/svg">
<path d="M22.35 10.0821C22.35 12.7114 22.111 14.0277 20.7622 14.3948L20.2517 14.5327L21.1053 16L21.3736 15.9652C24.1376 15.5927 25.5962 13.8181 25.5962 10.8304V0.223997H22.35V10.0821Z" fill="#1EAAE1"/>
<path d="M28.5908 13.1758H31.8153V0.223516H28.5908V13.1758Z" fill="#1EAAE1"/>
<path d="M58.561 6.69987C58.561 9.61918 57.261 11.5795 55.3289 11.5795C53.3946 11.5795 52.0925 9.61918 52.0925 6.69987C52.0925 3.7773 53.3946 1.81372 55.3289 1.81372C57.261 1.81372 58.561 3.7773 58.561 6.69987ZM55.3289 1.33514e-05C51.2377 1.33514e-05 48.6931 2.56744 48.6931 6.69987C48.6931 10.8377 51.2377 13.4062 55.3289 13.4062C59.4201 13.4062 61.9614 10.8377 61.9614 6.69987C61.9614 2.56744 59.4201 1.33514e-05 55.3289 1.33514e-05Z" fill="#1EAAE1"/>
<path d="M90.1994 6.69987C90.1994 9.61918 88.8994 11.5795 86.9695 11.5795C85.032 11.5795 83.732 9.61918 83.732 6.69987C83.732 3.7773 85.032 1.81372 86.9695 1.81372C88.8994 1.81372 90.1994 3.7773 90.1994 6.69987ZM86.9695 1.33514e-05C82.8762 1.33514e-05 80.3337 2.56744 80.3337 6.69987C80.3337 10.8377 82.8762 13.4062 86.9695 13.4062C91.0607 13.4062 93.601 10.8377 93.601 6.69987C93.601 2.56744 91.0607 1.33514e-05 86.9695 1.33514e-05Z" fill="#1EAAE1"/>
<path d="M114.733 6.69987C114.733 9.61918 113.435 11.5795 111.499 11.5795C109.566 11.5795 108.267 9.61918 108.267 6.69987C108.267 3.7773 109.566 1.81372 111.499 1.81372C113.435 1.81372 114.733 3.7773 114.733 6.69987ZM111.499 1.33514e-05C107.406 1.33514e-05 104.862 2.56744 104.862 6.69987C104.862 10.8377 107.406 13.4062 111.499 13.4062C115.593 13.4062 118.138 10.8377 118.138 6.69987C118.138 2.56744 115.593 1.33514e-05 111.499 1.33514e-05Z" fill="#1EAAE1"/>
<path d="M13.7247 6.99595C14.6283 5.92293 15.6372 4.71959 16.0857 4.1809V9.02904C15.4308 8.30573 14.6304 7.60306 13.7247 6.99595ZM10.1124 7.19253C8.20642 9.49062 6.67726 11.023 5.47283 11.7463C2.71426 13.4015 1.95619 10.0662 5.3892 7.84199C6.71853 6.97966 8.73859 6.60606 10.1124 7.19253ZM16.0857 0.215725C16.0857 0.215725 13.1165 3.6748 11.3375 5.75677C9.2675 4.98676 6.60993 4.57406 3.50925 6.48334C0.574733 8.28944 -1.63104 13.7251 3.68193 13.7479C6.31669 13.7599 8.87761 12.7281 12.1184 8.8922C12.2107 8.7836 12.379 8.58594 12.4681 8.48167C13.9147 9.54058 15.0768 11.0187 16.0857 13.1756H19.3015V0.215725H16.0857Z" fill="#1EAAE1"/>
<path d="M100.891 13.1738V2.37086C101.218 2.37086 103.119 2.45774 104.448 2.66844V0.222647H94.0361V2.66844C95.3665 2.45774 97.2671 2.37086 97.5973 2.37086V13.1738H100.891Z" fill="#1EAAE1"/>
<path d="M74.6599 5.67637L71.0509 13.1777H70.1093L66.5373 5.57211C66.5492 5.6503 66.5557 5.74044 66.5492 5.83167C66.2516 8.21121 65.9323 11.9288 65.8976 13.1777H63.2737C63.7874 10.5593 64.8995 2.82439 65.1971 0.225467H67.2997L71.0824 8.15365L75.0715 0.225467H76.9612C77.2903 2.82005 77.8279 7.16752 78.8857 13.1777H75.2159C75.1746 11.8897 74.8879 8.20796 74.649 5.93376C74.6425 5.84145 74.6468 5.75239 74.6599 5.67637Z" fill="#1EAAE1"/>
<path d="M43.8989 7.42882C44.0173 7.56349 44.1552 7.77418 44.2584 7.95012L44.2161 7.08237V0.225031H46.5815V13.1773L44.6918 13.1816L37.627 5.36206C37.4858 5.22196 37.3294 4.98194 37.2241 4.80383L37.2675 5.64986V13.1773H34.8999V0.225031H37.2697L43.8989 7.42882Z" fill="#1EAAE1"/>
<path d="M120.682 11.9707C120.682 11.2669 120.105 10.6902 119.401 10.6902C118.696 10.6902 118.121 11.2669 118.121 11.9707H118.28C118.28 11.356 118.783 10.8532 119.401 10.8532C120.019 10.8532 120.521 11.356 120.521 11.9707H120.682Z" fill="#1EAAE1"/>
<path d="M120.52 11.9706C120.52 12.5864 120.018 13.0904 119.401 13.0904C118.782 13.0904 118.279 12.5864 118.279 11.9706H118.122C118.122 12.6733 118.695 13.25 119.401 13.25C120.104 13.25 120.679 12.6733 120.679 11.9706H120.52Z" fill="#1EAAE1"/>
<path d="M119.1 12.1236H119.502C119.691 12.1236 119.701 12.2018 119.701 12.4103C119.701 12.558 119.71 12.6362 119.728 12.709H120.01V12.6666C119.953 12.6438 119.953 12.5895 119.953 12.3723C119.953 12.0921 119.902 12.0465 119.805 11.9933C119.921 11.9444 119.989 11.801 119.989 11.6392C119.989 11.5122 119.932 11.2167 119.603 11.2167H118.865V12.709H119.115V11.4709H119.557C119.709 11.4709 119.736 11.5914 119.736 11.6718C119.736 11.8162 119.672 11.8727 119.538 11.8727H119.1V12.1236Z" fill="#1EAAE1"/>
</svg>
